<?xml version="1.0" encoding="UTF-8" standalone="no"?>
<svg
   width="48.23563"
   height="55"
   viewBox="0 0 12.762343 14.552083"
   version="1.1"
   id="svg2630"
   inkscape:version="1.1.2 (0a00cf5339, 2022-02-04)"
   sodipodi:docname="SGE_Icon_55h.svg"
   xmlns:inkscape="http://www.inkscape.org/namespaces/inkscape"
   xmlns:sodipodi="http://sodipodi.sourceforge.net/DTD/sodipodi-0.dtd"
   xmlns="http://www.w3.org/2000/svg"
   xmlns:svg="http://www.w3.org/2000/svg"
   xmlns:rdf="http://www.w3.org/1999/02/22-rdf-syntax-ns#"
   xmlns:cc="http://creativecommons.org/ns#"
   xmlns:dc="http://purl.org/dc/elements/1.1/">
  <defs
     id="defs2624" />
  <sodipodi:namedview
     id="base"
     pagecolor="#ffffff"
     bordercolor="#666666"
     borderopacity="1.0"
     inkscape:pageopacity="0.0"
     inkscape:pageshadow="2"
     inkscape:zoom="1.4"
     inkscape:cx="52.857143"
     inkscape:cy="103.57143"
     inkscape:document-units="mm"
     inkscape:current-layer="layer1"
     inkscape:document-rotation="0"
     showgrid="false"
     units="px"
     inkscape:window-width="1440"
     inkscape:window-height="761"
     inkscape:window-x="0"
     inkscape:window-y="32"
     inkscape:window-maximized="1"
     inkscape:pagecheckerboard="1"
     fit-margin-top="0"
     fit-margin-left="0"
     fit-margin-right="0"
     fit-margin-bottom="0" />
  <metadata
     id="metadata2627">
    <rdf:RDF>
      <cc:Work
         rdf:about="">
        <dc:format>image/svg+xml</dc:format>
        <dc:type
           rdf:resource="http://purl.org/dc/dcmitype/StillImage" />
      </cc:Work>
    </rdf:RDF>
  </metadata>
  <g
     inkscape:label="Layer 1"
     inkscape:groupmode="layer"
     id="layer1"
     style="display:inline"
     transform="translate(-4.3739093,-0.66094586)">
    <ellipse
       style="display:inline;fill:#dddddd;fill-opacity:1;stroke:#000000;stroke-width:0.0890973;stroke-miterlimit:4;stroke-dasharray:none;stroke-opacity:1"
       id="path833"
       cx="10.299064"
       cy="7.9157228"
       rx="4.4694386"
       ry="4.4957485" />
    <circle
       style="display:inline;fill:#ffffff;fill-opacity:1;stroke:#000000;stroke-width:0.0890973;stroke-miterlimit:4;stroke-dasharray:none;stroke-opacity:1"
       id="path835"
       cx="8.3389797"
       cy="7.4552989"
       r="1.6296618" />
    <ellipse
       style="display:inline;fill:#ffffff;fill-opacity:1;stroke:#000000;stroke-width:0.0890973;stroke-miterlimit:4;stroke-dasharray:none;stroke-opacity:1"
       id="path837"
       cx="12.381401"
       cy="7.4552989"
       rx="0.9643423"
       ry="1.1038717" />
    <rect
       style="display:inline;fill:#dddddd;fill-opacity:1;stroke:#000000;stroke-width:0.0890973;stroke-miterlimit:4;stroke-dasharray:none;stroke-opacity:1"
       id="rect839"
       width="1.3090898"
       height="2.2659159"
       x="6.439415"
       y="12.192049" />
    <rect
       style="display:inline;fill:#dddddd;fill-opacity:1;stroke:#000000;stroke-width:0.0890973;stroke-miterlimit:4;stroke-dasharray:none;stroke-opacity:1"
       id="rect841"
       width="1.2802175"
       height="2.3052688"
       x="8.4645605"
       y="12.782096" />
    <rect
       style="display:inline;fill:#dddddd;fill-opacity:1;stroke:#000000;stroke-width:0.0890973;stroke-miterlimit:4;stroke-dasharray:none;stroke-opacity:1"
       id="rect843"
       width="1.3409675"
       height="1.6955036"
       x="10.71721"
       y="13.228293" />
    <rect
       style="display:inline;fill:#dddddd;fill-opacity:1;stroke:#000000;stroke-width:0.0890973;stroke-miterlimit:4;stroke-dasharray:none;stroke-opacity:1"
       id="rect845"
       width="1.2037359"
       height="2.8722179"
       x="12.886756"
       y="12.296263" />
    <rect
       style="display:inline;fill:#ffffff;fill-opacity:1;stroke:#000000;stroke-width:0.0890973;stroke-miterlimit:4;stroke-dasharray:none;stroke-opacity:1"
       id="rect866"
       width="0.52619791"
       height="1.2950813"
       x="10.562162"
       y="9.4226484" />
    <rect
       style="display:inline;fill:#ffffff;fill-opacity:0.923858;stroke:#000000;stroke-width:0.0890973;stroke-miterlimit:4;stroke-dasharray:none;stroke-opacity:1"
       id="rect864"
       width="0.55578589"
       height="1.0852724"
       x="9.2039204"
       y="9.5962658" />
    <path
       style="display:inline;fill:#daa402;fill-opacity:1;stroke:#000000;stroke-width:0.0890973;stroke-linecap:butt;stroke-linejoin:miter;stroke-miterlimit:4;stroke-dasharray:none;stroke-opacity:1"
       d="m 7.0774189,1.9762628 c 0,0 -0.5442567,1.1506844 -0.506466,2.200819 0.016626,0.4620381 -4.3213485,2.6583414 -0.7274686,2.2284509 4.6961627,-0.5617367 8.1586987,-1.20631 8.1586987,-1.20631 l 1.260521,-0.3632148 c 0,0 2.835324,-1.6280674 1.446766,-1.9665212 -1.473353,-0.3591309 -2.108737,-0.4880478 -2.983542,-0.405176 v 0 L 13.081336,1.8473458 c 0,0 -0.90243,-1.14185129 -1.703565,-1.14185129 -1.114833,0 -3.563888,0.43927229 -4.0148899,0.94847579 L 7.0774189,1.9762628"
       id="path2015"
       sodipodi:nodetypes="cssscscccssc" />
    <path
       style="display:inline;fill:none;stroke:#000000;stroke-width:0.0890973;stroke-linecap:butt;stroke-linejoin:miter;stroke-miterlimit:4;stroke-dasharray:none;stroke-opacity:1"
       d="M 6.5943885,4.1642811 6.663036,3.3575347 c 0,0 2.2836992,0.2209955 6.59326,-1.3444335 l 0.468471,0.493684"
       id="path2018"
       sodipodi:nodetypes="cccc" />
    <path
       style="display:inline;fill:none;stroke:#000000;stroke-width:0.0890973;stroke-linecap:butt;stroke-linejoin:miter;stroke-miterlimit:4;stroke-dasharray:none;stroke-opacity:1"
       d="m 6.5943885,4.1642811 c 0,0 4.2279315,-0.042474 7.1315395,-1.6999704"
       id="path2020"
       sodipodi:nodetypes="cc" />
    <path
       style="display:inline;fill:#da5302;fill-opacity:1;stroke:#000000;stroke-width:0.00196879;stroke-miterlimit:4;stroke-dasharray:none;stroke-opacity:1"
       d="m 6.6498107,4.0980837 c -1.402e-4,-0.022754 0.051308,-0.6422394 0.055637,-0.6699409 l 0.00303,-0.019486 0.1286148,0.00467 c 0.1457434,0.00583 0.5190518,-0.0035 0.7341723,-0.018322 C 9.1675173,3.2863701 11.076027,2.8438306 13.157638,2.0997459 l 0.08427,-0.030105 0.02763,0.028005 c 0.06079,0.061494 0.347532,0.366669 0.347532,0.3698196 0,0.00467 -0.243395,0.1324642 -0.406961,0.2130723 C 12.376807,3.0912166 11.338794,3.4351784 10.188841,3.6817052 9.0985731,3.9154314 7.8897849,4.0672775 6.7622349,4.1121674 l -0.1123239,0.00467 z"
       id="path2024" />
  </g>
</svg>
